<svg xmlns="http://www.w3.org/2000/svg" viewBox="0 0 64 64">
  <defs>
    <linearGradient id="g-grad" x1="0%" y1="0%" x2="100%" y2="100%">
      <stop offset="0%" stop-color="#00e5ff"/>
      <stop offset="100%" stop-color="#d946ef"/>
    </linearGradient>
  </defs>
  <!-- 圆角方形背景 -->
  <rect x="2" y="2" width="60" height="60" rx="14" ry="14" fill="#0a192f"/>
  <!-- G 形环 + 游戏手柄 组合图标 -->
  <g transform="translate(12, 12)" fill="url(#g-grad)">
    <!-- G 圆环左侧和底部 -->
    <path d="M20 2 C9 2 0 11 0 22 C0 33 9 42 20 42 L32 42 L32 36 L20 36 C12.3 36 6 29.7 6 22 C6 14.3 12.3 8 20 8 L32 8 C35.3 8 38 10.7 38 14 L38 18 L44 18 L44 14 C44 7.4 38.6 2 32 2 L20 2 Z"/>
    <!-- 游戏手柄主体 -->
    <path d="M26 20 C23.2 20 21 22.2 21 25 L21 31 C21 32.1 21.9 33 23 33 L26 33 L26 42 L32 42 L32 33 L39 33 C40.1 33 41 32.1 41 31 L41 25 C41 22.2 38.8 20 36 20 L26 20 Z"/>
    <!-- 手柄左摇杆 -->
    <circle cx="26" cy="27" r="2.5" fill="#0a192f"/>
    <!-- 手柄右按键组 -->
    <circle cx="33" cy="25" r="1.8" fill="#0a192f"/>
    <circle cx="37" cy="25" r="1.8" fill="#0a192f"/>
    <circle cx="35" cy="28" r="1.8" fill="#0a192f"/>
  </g>
</svg>
